<?xml version="1.0" standalone="no"?>
<!DOCTYPE svg PUBLIC "-//W3C//DTD SVG 20010904//EN"
 "http://www.w3.org/TR/2001/REC-SVG-20010904/DTD/svg10.dtd">
<svg version="1.0" xmlns="http://www.w3.org/2000/svg"
 width="700.000000pt" height="700.000000pt" viewBox="0 0 700.000000 700.000000"
 preserveAspectRatio="xMidYMid meet">
<metadata>
Created by potrace 1.11, written by Peter Selinger 2001-2013
</metadata>
<g transform="translate(0.000000,700.000000) scale(0.100000,-0.100000)"
fill="#000000" stroke="none">
<path d="M3295 6934 c-549 -45 -1017 -180 -1451 -421 -890 -493 -1514 -1343
-1713 -2332 -50 -244 -65 -408 -65 -681 0 -273 15 -437 65 -681 272 -1354
1334 -2416 2688 -2688 244 -50 408 -65 681 -65 273 0 437 15 681 65 1354 272
2416 1334 2688 2688 50 244 65 408 65 681 0 273 -15 437 -65 681 -199 989
-823 1839 -1713 2332 -378 210 -814 349 -1256 402 -131 15 -503 27 -605 19z
m480 -65 c811 -69 1544 -409 2115 -979 1321 -1322 1321 -3458 0 -4780 -1322
-1321 -3458 -1321 -4780 0 -1321 1322 -1321 3458 0 4780 566 565 1304 909
2100 979 139 12 427 12 565 0z"/>
<path d="M1310 4814 c-130 -24 -252 -63 -365 -118 -395 -193 -663 -556 -735
-995 -16 -96 -16 -306 0 -402 46 -280 168 -523 363 -725 197 -205 451 -337
744 -389 63 -11 158 -15 340 -15 339 0 445 21 678 135 175 85 379 230 571 408
101 92 436 439 524 540 36 42 67 76 70 76 3 0 34 -34 70 -76 88 -101 423 -448
524 -540 192 -178 396 -323 571 -408 233 -114 339 -135 678 -135 347 0 493 28
712 134 347 170 604 479 704 850 59 221 59 471 0 692 -59 217 -172 415 -332
580 -197 205 -451 337 -744 389 -63 11 -158 15 -340 15 -339 0 -445 -21 -678
-135 -175 -85 -379 -230 -571 -408 -101 -92 -436 -439 -524 -540 -36 -42 -67
-76 -70 -76 -3 0 -34 34 -70 76 -88 101 -423 448 -524 540 -252 232 -527 411
-746 484 -151 50 -234 59 -513 58 -174 -1 -287 -6 -337 -15z m475 -35 c257
-61 532 -228 841 -511 118 -107 397 -398 581 -605 l144 -163 -144 -162 c-184
-208 -463 -499 -581 -606 -333 -305 -605 -464 -899 -526 -78 -16 -169 -5 -310
38 -482 147 -841 563 -916 1063 -14 92 -14 294 0 386 59 391 288 730 635 940
125 75 295 137 444 162 84 14 80 14 205 -16z m3635 16 c73 -10 229 -57 315
-95 299 -134 553 -394 675 -690 70 -169 100 -323 100 -510 0 -67 -5 -154 -11
-193 -75 -500 -434 -916 -916 -1063 -141 -43 -232 -54 -310 -38 -244 52 -456
161 -718 370 -192 154 -460 422 -762 762 l-144 162 144 163 c184 207 463 498
581 605 307 281 583 450 836 510 120 29 123 30 140 26 8 -1 40 -6 70 -9z
m-4560 -259 c0 -2 -8 -10 -17 -17 -16 -13 -17 -12 -4 4 13 16 21 21 21 13z
m5301 -13 c13 -16 12 -17 -3 -4 -10 7 -18 15 -18 17 0 8 8 3 21 -13z m-5451 4
c0 -2 -12 -14 -27 -28 l-28 -24 24 28 c23 25 31 32 31 24z m70 -1 c0 -2 -8
-10 -17 -17 -16 -13 -17 -12 -4 4 13 16 21 21 21 13z m170 1 c0 -2 -12 -14
-27 -28 l-28 -24 24 28 c23 25 31 32 31 24z m5130 -22 c13 -14 21 -25 18 -25
-2 0 -15 11 -28 25 -13 14 -21 25 -18 25 2 0 15 -11 28 -25z m161 8 c13 -16
12 -17 -3 -4 -10 7 -18 15 -18 17 0 8 8 3 21 -13z m79 -8 c13 -14 21 -25 18
-25 -2 0 -15 11 -28 25 -13 14 -21 25 -18 25 2 0 15 -11 28 -25z m-5681 -82
c-184 -191 -294 -400 -350 -666 -30 -143 -30 -371 0 -514 55 -265 164 -472
350 -668 l95 -100 -87 85 c-210 203 -343 460 -386 747 -14 92 -14 294 0 386
31 204 114 408 237 582 33 46 220 245 230 245 3 0 -37 -44 -89 -97z m161 94
c0 -2 -17 -19 -37 -38 l-38 -34 34 38 c33 34 41 42 41 34z m70 0 c0 -2 -12
-14 -27 -28 l-28 -24 24 28 c23 25 31 32 31 24z m5290 -22 c13 -14 21 -25 18
-25 -2 0 -15 11 -28 25 -13 14 -21 25 -18 25 2 0 15 -11 28 -25z m80 -10 c19
-19 32 -35 29 -35 -3 0 -20 16 -39 35 -19 19 -32 35 -29 35 3 0 20 -16 39 -35z
m289 -250 c149 -228 221 -465 221 -735 0 -149 -19 -274 -60 -401 -67 -206
-165 -365 -319 -519 l-104 -105 94 100 c187 197 295 404 350 668 30 143 30
371 0 514 -55 264 -163 471 -350 668 l-94 100 104 -105 c58 -58 129 -141 158
-185z m-5725 183 c-237 -247 -366 -570 -366 -918 0 -345 125 -661 362 -916
l75 -81 -86 87 c-172 175 -292 400 -346 650 -25 119 -25 401 0 520 54 247 170
468 344 651 47 49 88 89 91 89 2 0 -31 -37 -74 -82z m5550 -181 c99 -149 166
-306 203 -477 13 -64 18 -128 18 -260 0 -132 -5 -196 -18 -260 -54 -250 -174
-475 -346 -650 l-86 -87 75 81 c237 255 362 571 362 916 0 345 -125 661 -362
916 l-75 81 86 -87 c47 -48 112 -126 143 -173z m-5611 191 c-175 -183 -297
-413 -350 -658 -26 -120 -26 -420 0 -540 53 -245 171 -467 351 -660 l60 -65
-58 55 c-90 86 -200 239 -261 363 -245 504 -150 1091 243 1500 36 37 68 67 70
67 3 0 -22 -28 -55 -62z m5643 -141 c297 -392 346 -917 129 -1364 -60 -123
-170 -277 -261 -363 -46 -44 -42 -38 20 30 169 184 281 401 333 640 26 120 26
420 0 540 -52 239 -164 456 -333 640 -62 68 -66 74 -20 30 32 -30 91 -99 132
-153z m-5719 133 c-244 -263 -367 -572 -367 -920 0 -348 117 -641 367 -923 51
-57 50 -56 -12 8 -220 228 -335 478 -367 798 -32 314 66 659 257 907 48 61
164 190 172 190 3 0 -20 -27 -50 -60z m5788 -130 c191 -249 289 -593 257 -907
-32 -320 -147 -570 -367 -798 -62 -64 -63 -65 -12 -8 250 282 367 575 367 923
0 348 -117 641 -367 923 -51 57 -50 56 12 -8 37 -38 87 -95 110 -125z m-5877
108 c-235 -270 -348 -560 -348 -898 0 -338 113 -628 348 -897 30 -35 52 -63
49 -63 -13 0 -152 170 -204 249 -93 140 -166 330 -195 505 -15 91 -15 321 0
412 29 175 102 365 195 505 52 79 191 249 204 249 3 0 -19 -28 -49 -62z m227
-15 c-223 -260 -335 -554 -335 -883 0 -329 112 -623 335 -882 37 -43 64 -78
61 -78 -3 0 -37 37 -76 83 -227 262 -333 541 -333 877 0 336 106 615 333 878
39 45 73 82 76 82 3 0 -24 -35 -61 -77z m5405 -5 c227 -263 333 -542 333 -878
0 -336 -106 -615 -333 -877 -39 -46 -73 -83 -76 -83 -3 0 24 35 61 78 223 259
335 553 335 882 0 329 -112 623 -335 883 -37 42 -64 77 -61 77 3 0 37 -37 76
-82z m240 0 c140 -161 230 -324 285 -512 38 -132 49 -215 49 -366 0 -151 -11
-234 -49 -366 -55 -188 -145 -351 -285 -511 -39 -46 -74 -83 -77 -83 -3 0 19
28 49 63 235 269 348 559 348 897 0 338 -113 628 -348 898 -30 34 -52 62 -49
62 3 0 38 -37 77 -82z m-5671 55 c-8 -10 -35 -42 -60 -70 -238 -266 -357 -678
-304 -1048 35 -248 152 -508 304 -678 52 -59 86 -103 59 -77 -181 172 -329
453 -374 714 -21 119 -21 333 0 452 29 170 103 355 201 504 40 59 173 220 183
220 3 0 -2 -8 -9 -17z m5515 -71 c150 -171 262 -407 302 -636 10 -53 16 -147
16 -226 0 -269 -71 -507 -218 -731 -40 -59 -128 -167 -172 -209 -27 -26 7 18
59 77 238 266 357 678 304 1048 -35 248 -152 508 -304 678 -52 59 -86 103 -59
77 9 -8 41 -44 72 -78z m-5625 21 c-133 -143 -239 -342 -294 -550 -110 -424 6
-907 294 -1215 24 -27 41 -48 38 -48 -12 0 -92 92 -148 170 -283 394 -321 932
-96 1364 61 118 212 322 241 325 5 1 -11 -20 -35 -46z m2032 30 c13 -16 12
-17 -3 -4 -17 13 -22 21 -14 21 2 0 10 -8 17 -17z m1619 13 c0 -2 -8 -10 -17
-17 -16 -13 -17 -12 -4 4 13 16 21 21 21 13z m2114 -156 c144 -199 226 -421
245 -664 14 -188 -12 -386 -75 -561 -53 -148 -176 -345 -271 -436 l-47 -44 52
58 c109 123 206 293 261 456 47 140 65 254 65 421 0 167 -18 281 -65 421 -55
163 -152 333 -261 456 l-52 58 47 -44 c25 -25 71 -79 101 -121z m-3893 133
c13 -16 12 -17 -3 -4 -17 13 -22 21 -14 21 2 0 10 -8 17 -17z m74 -3 c10 -11
16 -20 13 -20 -3 0 -13 9 -23 20 -10 11 -16 20 -13 20 3 0 13 -9 23 -20z
m1795 17 c0 -2 -10 -12 -22 -23 l-23 -19 19 23 c18 21 26 27 26 19z m70 -1 c0
-2 -8 -10 -17 -17 -16 -13 -17 -12 -4 4 13 16 21 21 21 13z m-1950 -31 c13
-14 21 -25 18 -25 -2 0 -15 11 -28 25 -13 14 -21 25 -18 25 2 0 15 -11 28 -25z
m165 5 c10 -11 16 -20 13 -20 -3 0 -13 9 -23 20 -10 11 -16 20 -13 20 3 0 13
-9 23 -20z m70 0 c10 -11 16 -20 13 -20 -3 0 -13 9 -23 20 -10 11 -16 20 -13
20 3 0 13 -9 23 -20z m1495 17 c0 -2 -10 -12 -22 -23 l-23 -19 19 23 c18 21
26 27 26 19z m70 0 c0 -2 -10 -12 -22 -23 l-23 -19 19 23 c18 21 26 27 26 19z
m170 0 c0 -2 -12 -14 -27 -28 l-28 -24 24 28 c23 25 31 32 31 24z m-1895 -27
c10 -11 16 -20 13 -20 -3 0 -13 9 -23 20 -10 11 -16 20 -13 20 3 0 13 -9 23
-20z m1815 17 c0 -2 -10 -12 -22 -23 l-23 -19 19 23 c18 21 26 27 26 19z
m-1735 -27 c10 -11 16 -20 13 -20 -3 0 -13 9 -23 20 -10 11 -16 20 -13 20 3 0
13 -9 23 -20z m1655 17 c0 -2 -10 -12 -22 -23 l-23 -19 19 23 c18 21 26 27 26
19z m-1575 -27 c10 -11 16 -20 13 -20 -3 0 -13 9 -23 20 -10 11 -16 20 -13 20
3 0 13 -9 23 -20z m1495 17 c0 -2 -10 -12 -22 -23 l-23 -19 19 23 c18 21 26
27 26 19z m-1655 -27 c10 -11 16 -20 13 -20 -3 0 -13 9 -23 20 -10 11 -16 20
-13 20 3 0 13 -9 23 -20z m75 -5 c13 -14 21 -25 18 -25 -2 0 -15 11 -28 25
-13 14 -21 25 -18 25 2 0 15 -11 28 -25z m1670 22 c0 -2 -12 -14 -27 -28 l-28
-24 24 28 c23 25 31 32 31 24z m70 0 c0 -2 -10 -12 -22 -23 l-23 -19 19 23
c18 21 26 27 26 19z m-1660 -32 c13 -14 21 -25 18 -25 -2 0 -15 11 -28 25 -13
14 -21 25 -18 25 2 0 15 -11 28 -25z m1510 22 c0 -2 -12 -14 -27 -28 l-28 -24
24 28 c23 25 31 32 31 24z m-1660 -42 c19 -19 32 -35 29 -35 -3 0 -20 16 -39
35 -19 19 -32 35 -29 35 3 0 20 -16 39 -35z m236 3 l29 -33 -32 29 c-31 28
-38 36 -30 36 2 0 16 -15 33 -32z m1344 29 c0 -2 -15 -16 -32 -33 l-33 -29 29
33 c28 30 36 37 36 29z m240 0 c0 -2 -17 -19 -37 -38 l-38 -34 34 38 c33 34
41 42 41 34z m-1740 -42 c19 -19 32 -35 29 -35 -3 0 -20 16 -39 35 -19 19 -32
35 -29 35 3 0 20 -16 39 -35z m1660 32 c0 -2 -17 -19 -37 -38 l-38 -34 34 38
c33 34 41 42 41 34z m-1575 -47 c21 -22 37 -40 34 -40 -3 0 -23 18 -44 40 -21
22 -37 40 -34 40 3 0 23 -18 44 -40z m1495 37 c0 -2 -19 -21 -42 -42 l-43 -40
40 43 c36 39 45 47 45 39z m-1415 -47 c21 -22 37 -40 34 -40 -3 0 -23 18 -44
40 -21 22 -37 40 -34 40 3 0 23 -18 44 -40z m1295 -5 c-24 -25 -46 -45 -49
-45 -3 0 15 20 39 45 24 25 46 45 49 45 3 0 -15 -20 -39 -45z m-985 -490 c170
-188 220 -245 213 -245 -3 0 -67 71 -144 157 -76 87 -240 261 -364 388 -203
209 -208 214 -46 55 97 -96 251 -256 341 -355z m964 297 c-123 -125 -287 -298
-363 -385 -77 -86 -142 -157 -144 -157 -3 0 3 10 14 23 195 221 296 329 483
520 123 125 227 227 229 227 3 0 -96 -102 -219 -228z m-854 -342 c115 -130
170 -195 133 -160 -8 8 -71 78 -139 155 -68 77 -218 237 -333 355 l-209 215
214 -215 c118 -118 268 -276 334 -350z m789 348 c-115 -117 -265 -276 -333
-353 -68 -77 -131 -147 -139 -155 -40 -38 20 33 142 170 121 135 524 550 535
550 2 0 -90 -96 -205 -212z m-731 -335 c64 -72 117 -133 117 -137 0 -3 -62 63
-137 147 -75 83 -218 236 -317 338 l-181 185 200 -200 c110 -111 253 -260 318
-333z m676 350 c-102 -104 -247 -257 -322 -340 -75 -84 -137 -150 -137 -147 0
20 620 674 638 674 3 0 -77 -84 -179 -187z m-966 -223 c198 -215 302 -331 311
-350 5 -8 -13 10 -40 40 -195 219 -342 379 -489 530 -113 117 -130 137 -51 60
65 -63 186 -189 269 -280z m245 -5 c213 -232 206 -225 200 -225 -3 0 -61 62
-129 138 -68 75 -200 216 -294 312 -113 117 -131 137 -51 60 65 -63 188 -191
274 -285z m646 223 c-93 -95 -225 -235 -293 -310 -68 -76 -126 -138 -129 -138
-3 0 5 12 19 28 178 196 268 293 403 430 89 89 163 162 165 162 2 0 -72 -78
-165 -172z m235 -5 c-142 -145 -284 -299 -483 -523 -27 -30 -45 -48 -40 -40 8
16 96 116 263 300 105 116 412 430 420 430 2 0 -70 -75 -160 -167z m-1076
-193 c205 -221 307 -336 307 -344 0 -3 -37 35 -82 86 -149 168 -299 331 -437
473 -85 88 -101 106 -43 50 52 -50 167 -169 255 -265z m1026 213 c-134 -136
-277 -290 -437 -471 -45 -51 -82 -89 -82 -86 0 22 629 694 650 694 2 0 -56
-62 -131 -137z m-924 -248 c100 -110 195 -216 210 -235 l27 -35 -33 36 c-19
19 -95 103 -169 185 -74 82 -193 210 -265 284 -77 80 -94 101 -41 50 48 -47
170 -175 271 -285z m839 233 c-71 -73 -190 -200 -264 -282 -74 -82 -150 -166
-169 -185 l-33 -36 27 35 c75 96 548 600 563 600 3 0 -53 -60 -124 -132z
m-1049 62 c27 -27 47 -50 44 -50 -3 0 -27 23 -54 50 -27 28 -47 50 -44 50 3 0
27 -22 54 -50z m1085 47 c0 -1 -24 -25 -52 -52 l-53 -50 50 53 c46 48 55 57
55 49z m-757 -395 c114 -125 197 -223 145 -172 -9 8 -37 40 -63 70 -26 30
-109 120 -183 200 -75 80 -112 123 -83 95 29 -27 112 -115 184 -193z m521 146
c-49 -51 -131 -140 -183 -198 -52 -58 -101 -112 -109 -120 -14 -14 -14 -13 -2
5 37 52 366 405 378 405 3 0 -35 -42 -84 -92z m-480 -490 c-25 -42 -439 -491
-580 -628 -79 -77 -62 -57 51 60 156 160 373 396 485 527 44 52 58 65 44 41z
m516 -243 c74 -82 209 -226 300 -320 92 -95 117 -124 56 -65 -145 141 -560
591 -580 630 -5 8 13 -10 40 -40 27 -30 110 -122 184 -205z m-515 203 c-92
-111 -380 -419 -531 -568 -162 -159 -157 -154 46 55 124 127 288 301 364 388
77 86 141 157 144 157 2 0 -8 -15 -23 -32z m411 -125 c76 -87 240 -261 364
-388 203 -209 208 -214 46 -55 -192 190 -571 600 -554 600 3 0 67 -71 144
-157z m-437 55 c-161 -181 -402 -438 -491 -523 -56 -55 -40 -35 43 50 140 144
321 341 444 482 39 44 72 79 74 77 2 -2 -30 -41 -70 -86z m545 -213 c60 -66
171 -183 245 -260 85 -88 101 -106 43 -50 -131 126 -562 593 -562 609 0 3 37
-35 82 -86 45 -51 132 -147 192 -213z m-466 266 c-35 -50 -375 -414 -519 -556
-132 -129 -121 -117 57 65 120 124 275 290 344 368 120 136 147 164 118 123z
m323 -146 c68 -77 218 -237 334 -355 181 -186 187 -193 46 -55 -152 150 -488
511 -520 559 -12 19 -12 19 1 6 8 -8 71 -78 139 -155z m-326 103 c-69 -83
-403 -442 -482 -518 -62 -60 -53 -48 33 40 127 131 309 329 408 443 59 68 91
95 41 35z m365 -184 c74 -82 193 -210 265 -284 77 -80 94 -101 41 -50 -88 86
-430 455 -481 520 l-27 35 33 -36 c19 -19 95 -103 169 -185z m-436 64 c-66
-73 -211 -225 -323 -338 l-204 -205 209 216 c115 119 259 272 319 341 61 69
112 123 114 122 2 -2 -50 -63 -115 -136z m670 -349 l181 -185 -200 200 c-186
187 -435 456 -435 470 0 3 62 -63 137 -147 75 -83 218 -236 317 -338z m-546
452 c-22 -31 -272 -302 -329 -356 -29 -27 8 15 83 95 75 80 162 175 194 213
57 66 78 86 52 48z m193 -111 c52 -58 134 -148 184 -200 49 -52 65 -72 36 -45
-62 58 -309 327 -330 358 -12 20 -12 20 1 7 8 -8 57 -62 109 -120z m-182 83
c-209 -230 -359 -389 -455 -483 -80 -77 -62 -57 51 60 94 96 226 237 294 313
68 75 126 137 129 137 3 0 -6 -12 -19 -27z m172 -110 c68 -76 200 -217 294
-313 113 -117 131 -137 51 -60 -65 63 -188 192 -274 285 -213 232 -206 225
-200 225 3 0 61 -62 129 -137z m-611 -326 c0 -1 -24 -25 -52 -52 l-53 -50 50
53 c46 48 55 57 55 49z m995 -47 c27 -27 47 -50 44 -50 -3 0 -27 23 -54 50
-27 28 -47 50 -44 50 3 0 27 -22 54 -50z m165 -157 c0 -8 -9 0 -50 45 l-45 47
48 -45 c26 -24 47 -45 47 -47z m-1300 74 c0 -2 -19 -21 -42 -42 l-43 -40 40
43 c36 39 45 47 45 39z m-80 -10 c0 -2 -19 -21 -42 -42 l-43 -40 40 43 c36 39
45 47 45 39z m1425 -37 c21 -22 37 -40 34 -40 -3 0 -23 18 -44 40 -21 22 -37
40 -34 40 3 0 23 -18 44 -40z m-1515 17 c0 -2 -17 -19 -37 -38 l-38 -34 34 38
c33 34 41 42 41 34z m1600 -32 c19 -19 32 -35 29 -35 -3 0 -20 16 -39 35 -19
19 -32 35 -29 35 3 0 20 -16 39 -35z m-1680 22 c0 -2 -17 -19 -37 -38 l-38
-34 34 38 c33 34 41 42 41 34z m1760 -32 c19 -19 32 -35 29 -35 -3 0 -20 16
-39 35 -19 19 -32 35 -29 35 3 0 20 -16 39 -35z m-1530 22 c0 -2 -15 -16 -32
-33 l-33 -29 29 33 c28 30 36 37 36 29z m1296 -29 l29 -33 -32 29 c-31 28 -38
36 -30 36 2 0 16 -15 33 -32z m-1386 9 c0 -2 -12 -14 -27 -28 l-28 -24 24 28
c23 25 31 32 31 24z m1470 -22 c13 -14 21 -25 18 -25 -2 0 -15 11 -28 25 -13
14 -21 25 -18 25 2 0 15 -11 28 -25z m-1550 12 c0 -2 -12 -14 -27 -28 l-28
-24 24 28 c23 25 31 32 31 24z m1630 -22 c13 -14 21 -25 18 -25 -2 0 -15 11
-28 25 -13 14 -21 25 -18 25 2 0 15 -11 28 -25z m-1710 12 c0 -2 -10 -12 -22
-23 l-23 -19 19 23 c18 21 26 27 26 19z m1785 -17 c10 -11 16 -20 13 -20 -3 0
-13 9 -23 20 -10 11 -16 20 -13 20 3 0 13 -9 23 -20z m-1625 7 c0 -2 -10 -12
-22 -23 l-23 -19 19 23 c18 21 26 27 26 19z m1465 -17 c10 -11 16 -20 13 -20
-3 0 -13 9 -23 20 -10 11 -16 20 -13 20 3 0 13 -9 23 -20z m-1545 7 c0 -2 -10
-12 -22 -23 l-23 -19 19 23 c18 21 26 27 26 19z m1625 -17 c10 -11 16 -20 13
-20 -3 0 -13 9 -23 20 -10 11 -16 20 -13 20 3 0 13 -9 23 -20z m-1775 7 c0 -2
-12 -14 -27 -28 l-28 -24 24 28 c23 25 31 32 31 24z m70 0 c0 -2 -10 -12 -22
-23 l-23 -19 19 23 c18 21 26 27 26 19z m1785 -17 c10 -11 16 -20 13 -20 -3 0
-13 9 -23 20 -10 11 -16 20 -13 20 3 0 13 -9 23 -20z m75 -5 c13 -14 21 -25
18 -25 -2 0 -15 11 -28 25 -13 14 -21 25 -18 25 2 0 15 -11 28 -25z m-1770 12
c0 -2 -10 -12 -22 -23 l-23 -19 19 23 c18 21 26 27 26 19z m70 0 c0 -2 -10
-12 -22 -23 l-23 -19 19 23 c18 21 26 27 26 19z m1465 -17 c10 -11 16 -20 13
-20 -3 0 -13 9 -23 20 -10 11 -16 20 -13 20 3 0 13 -9 23 -20z m70 0 c10 -11
16 -20 13 -20 -3 0 -13 9 -23 20 -10 11 -16 20 -13 20 3 0 13 -9 23 -20z
m-1685 7 c0 -2 -10 -12 -22 -23 l-23 -19 19 23 c18 21 26 27 26 19z m1765 -17
c10 -11 16 -20 13 -20 -3 0 -13 9 -23 20 -10 11 -16 20 -13 20 3 0 13 -9 23
-20z m-1845 6 c0 -2 -8 -10 -17 -17 -16 -13 -17 -12 -4 4 13 16 21 21 21 13z
m1921 -13 c13 -16 12 -17 -3 -4 -17 13 -22 21 -14 21 2 0 10 -8 17 -17z
m-1761 3 c0 -2 -8 -10 -17 -17 -16 -13 -17 -12 -4 4 13 16 21 21 21 13z m1601
-13 c13 -16 12 -17 -3 -4 -17 13 -22 21 -14 21 2 0 10 -8 17 -17z m-3541 -68
c19 -19 32 -35 29 -35 -3 0 -20 16 -39 35 -19 19 -32 35 -29 35 3 0 20 -16 39
-35z m5500 32 c0 -2 -17 -19 -37 -38 l-38 -34 34 38 c33 34 41 42 41 34z
m-5420 -42 c13 -14 21 -25 18 -25 -2 0 -15 11 -28 25 -13 14 -21 25 -18 25 2
0 15 -11 28 -25z m5330 22 c0 -2 -12 -14 -27 -28 l-28 -24 24 28 c23 25 31 32
31 24z m-5490 -32 c13 -14 21 -25 18 -25 -2 0 -15 11 -28 25 -13 14 -21 25
-18 25 2 0 15 -11 28 -25z m240 0 c13 -14 21 -25 18 -25 -2 0 -15 11 -28 25
-13 14 -21 25 -18 25 2 0 15 -11 28 -25z m5170 22 c0 -2 -12 -14 -27 -28 l-28
-24 24 28 c23 25 31 32 31 24z m240 0 c0 -2 -12 -14 -27 -28 l-28 -24 24 28
c23 25 31 32 31 24z m-5569 -34 c13 -16 12 -17 -3 -4 -10 7 -18 15 -18 17 0 8
8 3 21 -13z m5479 13 c0 -2 -8 -10 -17 -17 -16 -13 -17 -12 -4 4 13 16 21 21
21 13z m-5399 -23 c13 -16 12 -17 -3 -4 -10 7 -18 15 -18 17 0 8 8 3 21 -13z
m5319 13 c0 -2 -8 -10 -17 -17 -16 -13 -17 -12 -4 4 13 16 21 21 21 13z"/>
</g>
</svg>
