<div>
  <svg id="svg2"
        xmlns:rdf="http://www.w3.org/1999/02/22-rdf-syntax-ns#"
        xmlns="http://www.w3.org/2000/svg"
        height="57.399"
        width="1.486in"
        version="1.1"
        xmlns:cc="http://creativecommons.org/ns#"
        xmlns:dc="http://purl.org/dc/elements/1.1/"
        viewBox="0 0 125.38096 53.811094">
    <path class="path first"
          id="1"
          d="m97.089 0.099757c14.808 0 26.812 12.001 26.812 26.806s-12.004 26.806-26.812 26.806c-27.236 0-47.121-53.612-74.357-53.612-14.808 0-26.812 12.001-26.812 26.806s12.004 26.806 26.812 26.806c27.236 0 47.121-53.612 74.357-53.612z"
          style="stroke-linejoin:round;stroke-linecap:round;stroke-miterlimit:2.6131;stroke-width:.19952;fill:none">
    </path>
    <path class="path second"
          id="2"
          d="m97.785 0.099757c14.808 0 26.812 12.001 26.812 26.806 0 14.804-12.004 26.805-26.812 26.805-27.236 0-47.121-53.611-74.357-53.611-14.808 0-26.812 12.001-26.812 26.806 0 14.804 12.004 26.805 26.812 26.805 27.236 0 47.121-53.611 74.357-53.611z"
          style="stroke-linejoin:round;stroke-linecap:round;stroke-miterlimit:2.6131;stroke-width:.19952;fill:none">
    </path>
    <path class="path third"
          id="3"
          d="m98.479 0.099757c14.808 0 26.812 12.001 26.812 26.806 0 14.804-12.004 26.805-26.812 26.805-27.236 0-47.121-53.611-74.357-53.611-14.808 0-26.812 12.001-26.812 26.806 0 14.804 12.004 26.805 26.812 26.805 27.236 0 47.121-53.611 74.357-53.611z"
          style="stroke-linejoin:round;stroke-linecap:round;stroke-miterlimit:2.6131;stroke-width:.19952;fill:none">
    </path>
    <path class="path fourth"
          id="4"
          d="m99.174 0.099757c14.808 0 26.812 12.001 26.812 26.806 0 14.804-12.004 26.805-26.812 26.805-27.236 0-47.121-53.611-74.357-53.611-14.808 0-26.812 12.001-26.812 26.806 0 14.804 12.004 26.805 26.812 26.805 27.236 0 47.121-53.611 74.357-53.611z"
          style="stroke-linejoin:round;stroke-linecap:round;stroke-miterlimit:2.6131;stroke-width:.19952;fill:none">
    </path>
    <path class="path fifth"
          id="5"
          d="m99.869 0.099757c14.808 0 26.812 12.001 26.812 26.806 0 14.804-12.004 26.805-26.812 26.805-27.236 0-47.121-53.611-74.357-53.611-14.808 0-26.812 12.001-26.812 26.806 0 14.804 12.004 26.805 26.812 26.805 27.236 0 47.121-53.611 74.357-53.611z"
          style="stroke-linejoin:round;stroke-linecap:round;stroke-miterlimit:2.6131;stroke-width:.19952;fill:none">
    </path>
    <path class="path sixth"
          id="6"
          d="m100.56 0.099757c14.808 0 26.812 12.001 26.812 26.806 0 14.804-12.004 26.805-26.812 26.805-27.236 0-47.121-53.611-74.357-53.611-14.808 0-26.812 12.001-26.812 26.806 0 14.804 12.004 26.805 26.812 26.805 27.236 0 47.121-53.611 74.357-53.611z"
          style="stroke-linejoin:round;stroke-linecap:round;stroke-miterlimit:2.6131;stroke-width:.19952;fill:none">
    </path>
    <path class="path seventh"
          id="7"
          d="m101.26 0.099757c14.808 0 26.812 12.001 26.812 26.806 0 14.804-12.004 26.805-26.812 26.805-27.236 0-47.121-53.611-74.357-53.611-14.808 0-26.812 12.001-26.812 26.806 0 14.804 12.004 26.805 26.812 26.805 27.236 0 47.121-53.611 74.357-53.611z"
          style="stroke-linejoin:round;stroke-linecap:round;stroke-miterlimit:2.6131;stroke-width:.19952;fill:none">
    </path>
    <path class="path eighth"
          id="8"
          d="m101.95 0.099757c14.808 0 26.812 12.001 26.812 26.806 0 14.804-12.004 26.805-26.812 26.805-27.236 0-47.121-53.611-74.357-53.611-14.808 0-26.812 12.001-26.812 26.806 0 14.804 12.004 26.805 26.812 26.805 27.236 0 47.121-53.611 74.357-53.611z"
          style="stroke-linejoin:round;stroke-linecap:round;stroke-miterlimit:2.6131;stroke-width:.19952;fill:none">
    </path>
    <path class="path nineth"
          id="9"
          d="m102.65 0.099757c14.808 0 26.812 12.001 26.812 26.806s-12.004 26.806-26.812 26.806c-27.236 0-47.121-53.612-74.357-53.612-14.808 0-26.812 12.001-26.812 26.806s12.004 26.806 26.812 26.806c27.236 0 47.121-53.612 74.357-53.612z"
          style="stroke-linejoin:round;stroke-linecap:round;stroke-miterlimit:2.6131;stroke-width:.19952;fill:none">
    </path>
  </svg>