<?xml version="1.0" encoding="UTF-8" standalone="no"?>
<svg
   xmlns:dc="http://purl.org/dc/elements/1.1/"
   xmlns:cc="http://creativecommons.org/ns#"
   xmlns:rdf="http://www.w3.org/1999/02/22-rdf-syntax-ns#"
   xmlns:svg="http://www.w3.org/2000/svg"
   xmlns="http://www.w3.org/2000/svg"
   xmlns:sodipodi="http://sodipodi.sourceforge.net/DTD/sodipodi-0.dtd"
   xmlns:inkscape="http://www.inkscape.org/namespaces/inkscape"
   id="svg2"
   height="57.399"
   width="1.486in"
   version="1.1"
   viewBox="0 0 125.38096 53.811094"
   inkscape:version="0.91 r13725"
   sodipodi:docname="logo2.svg">
           <defs>
          <filter id="dropshadow" height="130%">
            <feGaussianBlur in="SourceAlpha" stdDeviation="3"/> 
            <feOffset dx="2" dy="2" result="offsetblur"/>
            <feComponentTransfer>
              <feFuncA type="linear" slope="0.8"/>
            </feComponentTransfer>
            <feMerge> 
              <feMergeNode/>
              <feMergeNode in="SourceGraphic"/> 
            </feMerge>
          </filter>
        </defs>
  <metadata
     id="metadata25">
    <rdf:RDF>
      <cc:Work
         rdf:about="">
        <dc:format>image/svg+xml</dc:format>
        <dc:type
           rdf:resource="http://purl.org/dc/dcmitype/StillImage" />
        <dc:title></dc:title>
      </cc:Work>
    </rdf:RDF>
  </metadata>
  <defs
     id="defs23" />
  <sodipodi:namedview
     pagecolor="#ffffff"
     bordercolor="#666666"
     borderopacity="1"
     objecttolerance="10"
     gridtolerance="10"
     guidetolerance="10"
     inkscape:pageopacity="0"
     inkscape:pageshadow="2"
     inkscape:window-width="1920"
     inkscape:window-height="1017"
     id="namedview21"
     showgrid="false"
     width="200px"
     height="80px"
     inkscape:zoom="2.4599971"
     inkscape:cx="11.788632"
     inkscape:cy="28.699499"
     inkscape:window-x="0"
     inkscape:window-y="30"
     inkscape:window-maximized="1"
     inkscape:current-layer="svg2" />
  <path
     id="1"
     d="m 77.877614,15.070988 c 6.537688,0 11.837418,5.298406 11.837418,11.834769 0,6.536363 -5.29973,11.834769 -11.837418,11.834769 -12.024612,0 -20.80378,-23.669538 -32.828393,-23.669538 -6.537688,0 -11.837418,5.298406 -11.837418,11.834769 0,6.536363 5.29973,11.834769 11.837418,11.834769 12.024613,0 20.803781,-23.669538 32.828393,-23.669538 z"
     style="fill:none;stroke:#000000;stroke-width:0.08808748;stroke-linecap:round;stroke-linejoin:round;stroke-miterlimit:2.61310005"
     inkscape:connector-curvature="0">
    <title
       id="title4184">1</title>
  </path>
  <path
     id="2"
     d="m 78.184896,15.070988 c 6.537688,0 11.837418,5.298406 11.837418,11.834769 0,6.535922 -5.29973,11.834327 -11.837418,11.834327 -12.024613,0 -20.803781,-23.669096 -32.828393,-23.669096 -6.537688,0 -11.837418,5.298406 -11.837418,11.834769 0,6.535922 5.29973,11.834327 11.837418,11.834327 12.024612,0 20.80378,-23.669096 32.828393,-23.669096 z"
     style="fill:none;stroke:#000000;stroke-width:0.08808748;stroke-linecap:round;stroke-linejoin:round;stroke-miterlimit:2.61310005"
     inkscape:connector-curvature="0">
    <title
       id="title4186">2</title>
  </path>
  <path
     id="3"
     d="m 78.491295,15.070988 c 6.537688,0 11.837418,5.298406 11.837418,11.834769 0,6.535922 -5.29973,11.834327 -11.837418,11.834327 -12.024613,0 -20.803781,-23.669096 -32.828393,-23.669096 -6.537688,0 -11.837418,5.298406 -11.837418,11.834769 0,6.535922 5.29973,11.834327 11.837418,11.834327 12.024612,0 20.80378,-23.669096 32.828393,-23.669096 z"
     style="fill:none;stroke:#000000;stroke-width:0.08808748;stroke-linecap:round;stroke-linejoin:round;stroke-miterlimit:2.61310005"
     inkscape:connector-curvature="0">
    <title
       id="title4188">3</title>
  </path>
  <path
     id="4"
     d="m 78.798135,15.070988 c 6.537688,0 11.837418,5.298406 11.837418,11.834769 0,6.535922 -5.29973,11.834327 -11.837418,11.834327 -12.024612,0 -20.80378,-23.669096 -32.828393,-23.669096 -6.537687,0 -11.837418,5.298406 -11.837418,11.834769 0,6.535922 5.299731,11.834327 11.837418,11.834327 12.024613,0 20.803781,-23.669096 32.828393,-23.669096 z"
     style="fill:none;stroke:#000000;stroke-width:0.08808748;stroke-linecap:round;stroke-linejoin:round;stroke-miterlimit:2.61310005"
     inkscape:connector-curvature="0">
    <title
       id="title4190">4</title>
  </path>
  <path
     id="5"
     d="m 79.104976,15.070988 c 6.537687,0 11.837418,5.298406 11.837418,11.834769 0,6.535922 -5.299731,11.834327 -11.837418,11.834327 -12.024613,0 -20.803781,-23.669096 -32.828393,-23.669096 -6.537688,0 -11.837418,5.298406 -11.837418,11.834769 0,6.535922 5.29973,11.834327 11.837418,11.834327 12.024612,0 20.80378,-23.669096 32.828393,-23.669096 z"
     style="fill:none;stroke:#000000;stroke-width:0.08808748;stroke-linecap:round;stroke-linejoin:round;stroke-miterlimit:2.61310005"
     inkscape:connector-curvature="0">
    <title
       id="title4192">5</title>
  </path>
  <path
     id="6"
     d="m 79.41005,15.070988 c 6.537688,0 11.837418,5.298406 11.837418,11.834769 0,6.535922 -5.29973,11.834327 -11.837418,11.834327 -12.024612,0 -20.80378,-23.669096 -32.828393,-23.669096 -6.537688,0 -11.837418,5.298406 -11.837418,11.834769 0,6.535922 5.29973,11.834327 11.837418,11.834327 12.024613,0 20.803781,-23.669096 32.828393,-23.669096 z"
     style="fill:none;stroke:#000000;stroke-width:0.08808748;stroke-linecap:round;stroke-linejoin:round;stroke-miterlimit:2.61310005"
     inkscape:connector-curvature="0">
    <title
       id="title4194">6</title>
  </path>
  <path
     id="7"
     d="m 79.719098,15.070988 c 6.537688,0 11.837418,5.298406 11.837418,11.834769 0,6.535922 -5.29973,11.834327 -11.837418,11.834327 -12.024612,0 -20.80378,-23.669096 -32.828393,-23.669096 -6.537688,0 -11.837418,5.298406 -11.837418,11.834769 0,6.535922 5.29973,11.834327 11.837418,11.834327 12.024613,0 20.803781,-23.669096 32.828393,-23.669096 z"
     style="fill:none;stroke:#000000;stroke-width:0.08808748;stroke-linecap:round;stroke-linejoin:round;stroke-miterlimit:2.61310005"
     inkscape:connector-curvature="0">
    <title
       id="title4196">7</title>
  </path>
  <path
     id="8"
     d="m 80.023731,15.070988 c 6.537688,0 11.837418,5.298406 11.837418,11.834769 0,6.535922 -5.29973,11.834327 -11.837418,11.834327 -12.024612,0 -20.80378,-23.669096 -32.828393,-23.669096 -6.537688,0 -11.837418,5.298406 -11.837418,11.834769 0,6.535922 5.29973,11.834327 11.837418,11.834327 12.024613,0 20.803781,-23.669096 32.828393,-23.669096 z"
     style="fill:none;stroke:#000000;stroke-width:0.08808748;stroke-linecap:round;stroke-linejoin:round;stroke-miterlimit:2.61310005"
     inkscape:connector-curvature="0">
    <title
       id="title4198">8</title>
  </path>
  <path
     id="9"
     d="m 80.332779,15.070988 c 6.537688,0 11.837418,5.298406 11.837418,11.834769 0,6.536363 -5.29973,11.834769 -11.837418,11.834769 -12.024613,0 -20.803781,-23.669538 -32.828393,-23.669538 -6.537688,0 -11.837418,5.298406 -11.837418,11.834769 0,6.536363 5.29973,11.834769 11.837418,11.834769 12.024612,0 20.80378,-23.669538 32.828393,-23.669538 z"
     style="fill:none;stroke:#000000;stroke-width:0.08808748;stroke-linecap:round;stroke-linejoin:round;stroke-miterlimit:2.61310005"
     inkscape:connector-curvature="0">
    <title
       id="title4200">9</title>
  </path>
</svg>
